<svg xmlns="http://www.w3.org/2000/svg" xmlns:svg="http://www.w3.org/2000/svg" version="1.0" width="512" height="512" viewBox="0 0 300 300" preserveAspectRatio="xMidYMid" id="svg5">
  <defs id="defs5"/>
  <metadata id="metadata1">
Created by potrace 1.10, written by Peter Selinger 2001-2011
</metadata>
  <g transform="matrix(0.1,0,0,-0.1,0,300)" fill="#000000" stroke="none" id="g5" style="fill:#658da6;fill-opacity:1">
    <path d="m 1450,2462 c -94,-118 -151,-203 -230,-342 -88,-155 -118,-199 -186,-269 l -81,-85 -30,22 c -17,12 -48,45 -69,72 l -39,51 -7,-52 c -5,-41 -2,-65 13,-104 10,-27 19,-53 19,-56 0,-4 -20,-12 -44,-19 l -44,-12 -13,-82 -12,-81 -101,-100 c -56,-55 -126,-118 -156,-139 -52,-36 -53,-38 -22,-32 60,10 134,70 259,208 31,35 44,59 53,104 17,79 28,101 57,109 36,9 48,44 34,101 -7,25 -10,49 -7,51 3,3 19,-6 36,-21 17,-14 38,-26 46,-26 8,0 14,-5 14,-10 0,-32 -155,-286 -201,-330 -69,-64 -182,-248 -123,-199 8,7 42,49 74,93 39,54 111,128 214,221 149,134 155,141 150,171 -5,28 4,45 79,145 114,155 117,159 136,236 15,61 20,68 44,71 21,3 34,18 72,87 25,46 45,94 45,107 0,22 130,232 138,223 3,-2 -3,-44 -12,-93 -16,-89 -16,-98 9,-209 3,-12 12,-23 20,-25 8,-2 50,-55 93,-119 60,-90 97,-134 164,-193 l 87,-76 42,-133 c 23,-72 44,-137 46,-143 4,-10 -36,-28 -44,-20 -2,1 -17,52 -34,112 -17,60 -42,132 -54,161 -23,51 -24,52 -71,55 l -47,3 -68,120 c -37,66 -73,129 -80,139 -11,18 -14,15 -40,-35 -15,-29 -28,-60 -29,-68 0,-8 37,-63 81,-123 57,-76 94,-115 120,-129 45,-22 50,-13 13,22 -30,27 -132,151 -159,192 -18,28 -14,82 7,75 6,-2 35,-46 65,-98 60,-106 83,-130 123,-130 15,0 34,-8 44,-19 20,-22 107,-284 96,-291 -4,-3 -11,-36 -15,-74 -10,-99 -20,-121 -29,-66 -4,24 -36,107 -71,184 -36,77 -65,146 -65,153 0,7 8,13 18,13 9,0 -17,15 -58,33 -41,19 -77,32 -79,30 -3,-2 12,-18 34,-35 29,-24 53,-64 103,-167 57,-122 122,-268 122,-277 0,-2 -8,-4 -18,-4 -13,0 -30,25 -59,88 -40,84 -46,91 -152,180 -61,51 -112,92 -115,92 -2,0 12,-38 32,-85 36,-86 52,-105 52,-60 0,14 4,25 8,25 5,0 32,-21 61,-47 36,-33 66,-74 94,-128 23,-44 49,-81 58,-83 19,-4 127,66 188,121 l 43,39 25,-43 c 22,-39 67,-95 135,-169 43,-48 235,-215 267,-233 60,-35 29,1 -115,133 -80,73 -180,176 -222,227 l -75,94 33,33 c 22,24 30,40 26,53 -4,13 4,29 28,52 l 34,33 -14,46 c -12,42 -12,49 4,71 31,43 42,66 42,88 0,12 4,24 9,27 21,14 28,-67 10,-108 -10,-22 -6,-33 35,-99 25,-41 55,-86 67,-98 l 20,-24 -6,28 c -3,16 -24,57 -45,91 -26,41 -40,75 -40,97 v 33 l 16,-23 c 10,-13 50,-90 90,-172 50,-99 100,-183 152,-251 91,-120 92,-121 97,-149 2,-12 15,-35 29,-53 13,-18 52,-86 86,-151 35,-66 67,-125 71,-131 5,-6 6,-14 2,-17 -3,-4 -117,-7 -252,-7 -228,0 -248,2 -278,20 -18,11 -33,24 -33,30 0,5 -11,10 -24,10 -41,0 -189,-29 -273,-53 l -81,-23 -6,27 c -3,15 -30,64 -59,110 -74,114 -167,302 -167,338 0,17 -5,33 -12,37 -8,5 -9,-2 -5,-26 6,-28 -2,-46 -63,-144 -98,-158 -187,-281 -199,-279 -6,2 -7,-5 -4,-14 6,-14 10,-13 27,12 12,15 31,40 43,54 l 22,26 1,-46 c 0,-82 27,-79 -705,-79 -532,0 -635,2 -635,14 0,7 12,40 27,72 14,33 38,91 54,129 26,67 30,72 96,111 47,28 94,69 154,136 80,89 88,102 125,204 30,83 50,120 85,161 37,42 50,68 68,135 13,46 25,90 28,98 2,9 -55,-41 -126,-110 C 544,1698 527,1677 496,1610 478,1569 434,1497 400,1450 338,1367 271,1237 160,984 l -57,-132 36,-15 c 20,-8 271,-114 559,-235 l 523,-221 292,5 292,5 547,232 547,232 -81,155 c -44,85 -91,164 -104,175 -15,13 -24,32 -24,50 0,38 -89,177 -151,235 -35,33 -56,65 -79,120 -33,80 -180,351 -189,349 -3,0 -26,-24 -50,-52 -24,-29 -63,-73 -86,-99 l -42,-47 -111,162 c -61,89 -133,184 -161,212 -28,27 -51,54 -51,59 0,6 -20,51 -44,101 -24,49 -65,147 -92,217 -27,70 -51,127 -54,127 -3,0 -61,-70 -130,-157 z m 198,-92 c 51,-121 99,-217 112,-225 12,-8 13,-82 1,-89 -5,-3 -15,8 -22,26 -15,38 -92,153 -126,190 -20,21 -26,41 -30,91 -6,70 3,126 17,111 4,-5 26,-52 48,-104 z m 235,-380 c 61,-88 45,-87 -53,3 -36,33 -50,54 -50,73 v 27 l 33,-25 c 17,-14 49,-49 70,-78 z m 142,-209 c 45,-62 67,-70 107,-41 16,12 32,19 35,17 2,-3 7,-24 10,-47 5,-32 1,-48 -14,-68 -11,-15 -24,-39 -28,-52 -19,-63 -147,-200 -186,-200 -21,0 -21,3 -15,62 8,71 11,78 33,78 8,0 28,8 45,18 37,21 36,42 -6,187 -27,93 -28,95 -23,95 3,0 22,-22 42,-49 z m -984,5 c -12,-18 -21,-47 -21,-64 0,-23 -13,-42 -64,-91 -64,-63 -106,-97 -106,-87 0,4 17,39 38,79 32,62 147,197 168,197 3,0 -4,-15 -15,-34 z m -342,-28 c -7,-13 -28,-41 -47,-63 -21,-25 -49,-80 -73,-144 -38,-101 -68,-149 -153,-246 -20,-22 -38,-48 -41,-57 -7,-21 -72,-60 -80,-48 -9,14 62,147 125,235 32,44 76,116 98,160 29,59 58,97 108,145 64,61 90,69 63,18 z m 961,-686 c -6,-24 -25,-74 -42,-113 l -31,-69 h -43 -44 v 40 c 0,30 8,51 34,84 42,55 112,181 123,221 13,48 16,-111 3,-163 z m 168,-88 c 41,-64 72,-123 72,-137 0,-2 -35,4 -79,12 l -78,14 -21,101 c -12,56 -24,126 -27,156 -3,30 -8,73 -11,95 -4,34 3,26 45,-61 27,-56 71,-137 99,-180 z m -219,174 c -32,-64 -102,-168 -112,-168 -5,0 -2,10 7,23 8,12 39,59 67,105 28,45 53,82 56,82 2,0 -6,-19 -18,-42 z m 89,-209 c 27,-84 34,-93 87,-107 64,-16 165,-18 202,-4 54,21 202,52 247,52 26,0 62,-9 83,-20 34,-17 60,-19 243,-20 201,-2 204,-2 180,-20 -13,-10 -27,-18 -30,-17 -3,1 -14,-4 -25,-10 -11,-6 -96,-43 -190,-82 -93,-40 -178,-77 -189,-82 -10,-6 -35,-17 -55,-24 -35,-13 -61,-24 -321,-136 l -125,-54 h -305 -305 l -75,34 c -41,18 -91,40 -110,48 -19,9 -50,22 -68,30 -18,8 -72,30 -120,49 -48,20 -100,42 -117,49 -16,8 -91,39 -165,70 -74,31 -151,64 -170,73 -19,9 -40,17 -45,18 -21,3 -76,42 -68,47 4,2 270,5 590,5 319,0 587,4 595,8 7,5 47,11 88,14 l 75,5 30,62 c 17,34 34,61 39,59 5,-1 16,-22 24,-47 z" id="path1" style="fill:#658da6;fill-opacity:1"/>
    <path d="m 1457,2300 c -16,-96 -59,-215 -93,-257 -19,-23 -66,-99 -106,-170 -39,-70 -89,-157 -110,-192 -21,-35 -37,-66 -34,-68 2,-2 32,14 66,37 35,22 65,38 67,36 6,-5 -251,-424 -318,-518 -35,-50 0,-30 81,47 110,102 128,110 84,38 -39,-65 -39,-66 -18,-87 26,-26 50,-18 96,30 23,25 75,70 113,99 79,59 92,71 192,168 69,67 72,69 102,59 38,-13 40,-1 5,27 -37,29 -49,27 -81,-15 -36,-48 -194,-188 -259,-230 -28,-18 -66,-53 -85,-78 -31,-42 -64,-65 -75,-53 -3,2 9,28 26,58 17,29 32,61 33,71 1,11 7,16 14,14 7,-3 20,6 30,20 9,14 59,64 112,111 82,73 103,99 147,178 37,66 58,122 78,201 15,60 29,116 32,125 3,10 -12,27 -41,48 l -45,32 23,47 c 52,105 53,108 21,154 -16,22 -34,57 -40,77 l -10,36 z m 17,-180 c -15,-35 -27,-72 -27,-82 1,-11 17,-37 37,-58 30,-34 33,-42 26,-72 -49,-206 -104,-317 -202,-406 -35,-31 -81,-75 -103,-97 -22,-23 -69,-63 -105,-90 -35,-28 -72,-59 -82,-70 -13,-16 -16,-17 -14,-4 1,9 20,37 43,63 22,25 58,75 79,109 20,34 59,98 86,142 54,90 60,125 24,149 l -24,15 43,78 c 24,43 56,101 71,128 15,28 41,68 59,90 40,49 58,85 75,148 11,42 15,47 28,34 12,-13 11,-23 -14,-77 z" id="path2" style="fill:#658da6;fill-opacity:1"/>
    <path d="m 2270,1645 c 0,-4 7,-34 16,-67 8,-33 14,-64 12,-69 -2,-5 -19,4 -38,20 -72,62 -64,48 147,-269 117,-176 162,-234 163,-208 0,10 -46,86 -103,170 -152,224 -160,239 -151,285 5,21 7,42 6,46 -1,4 15,5 35,1 42,-7 43,-8 -34,55 -29,24 -53,40 -53,36 z" id="path3" style="fill:#658da6;fill-opacity:1"/>
    <path d="M 888,1406 C 719,1286 593,1181 616,1180 c 10,0 82,49 129,87 11,9 156,111 214,150 19,13 38,23 42,23 5,0 6,-25 3,-55 -11,-88 10,-65 38,43 15,53 25,98 24,99 -2,2 -81,-53 -178,-121 z" id="path4" style="fill:#658da6;fill-opacity:1"/>
    <path d="m 2086,1299 c -7,-24 -14,-28 -64,-34 -86,-11 -163,-7 -242,11 -86,19 -101,13 -28,-12 55,-20 239,-27 305,-12 31,7 32,6 77,-75 65,-115 136,-206 191,-245 l 47,-33 24,22 c 13,12 21,25 18,28 -3,3 -14,-5 -24,-19 l -19,-25 -78,81 c -82,84 -188,252 -195,309 l -4,30 z" id="path5" style="fill:#658da6;fill-opacity:1"/>
  </g>
  <path style="display:inline;fill:#a6a565;fill-opacity:1;fill-rule:evenodd;stroke:#000000;stroke-width:0.0462642;stroke-linecap:round;stroke-linejoin:round;paint-order:markers fill stroke" d="m 154.91509,341.1358 c -9.05777,-4.1894 -30.36002,-13.41785 -40.30596,-17.46115 -5.59026,-2.27259 -14.02823,-5.78708 -18.751036,-7.80998 -4.722807,-2.0229 -15.605417,-6.63108 -24.183578,-10.24041 -8.57816,-3.60932 -17.826739,-7.56043 -20.552398,-8.78024 -2.725659,-1.21981 -5.922876,-2.53533 -7.104928,-2.92338 -1.182051,-0.38805 -3.066376,-1.1944 -4.187387,-1.79189 -2.274537,-1.21232 -5.611652,-3.99665 -5.244387,-4.37568 0.130749,-0.13494 29.466481,-0.38687 65.190512,-0.55986 69.671472,-0.33736 91.346822,-0.68619 93.692692,-1.50782 1.84768,-0.64715 6.27589,-1.19635 14.10789,-1.74973 3.51845,-0.24859 6.45398,-0.51735 6.5234,-0.59723 0.0694,-0.0799 1.64188,-3.14261 3.49435,-6.80608 3.46781,-6.85797 5.04311,-9.25367 5.78377,-8.79591 0.68971,0.42626 1.74718,2.78164 3.44398,7.67102 2.66285,7.6731 4.1387,9.92976 7.40373,11.32075 2.06834,0.88117 8.32279,2.17145 12.4901,2.57669 8.32428,0.80947 14.4623,0.36988 19.91208,-1.42607 4.98294,-1.6421 15.21795,-4.04583 22.34831,-5.24858 10.05264,-1.69568 12.1094,-1.48328 21.76426,2.24764 3.61982,1.3988 7.6354,1.65472 31.33446,1.99699 12.14437,0.17539 22.51139,0.44393 23.03783,0.59677 0.52645,0.15283 0.98717,0.43375 1.02383,0.62426 0.11169,0.58038 -3.08173,2.65403 -5.4011,3.5072 -1.20323,0.4426 -4.63233,1.91076 -7.62023,3.26258 -2.9879,1.35181 -11.18928,4.9043 -18.2253,7.89441 -7.03602,2.99011 -16.4203,7.04618 -20.85396,9.01349 -4.43365,1.96732 -11.45215,4.95938 -15.59665,6.64904 -4.14451,1.68965 -18.94552,7.97866 -32.89114,13.97556 l -25.35569,10.90347 -40.36056,-0.0292 -40.36056,-0.0292 z" id="sol" transform="scale(0.75)"/>
  <g id="g15" style="fill:#a66565;fill-opacity:1">
    <path style="display:inline;fill:#a66565;fill-opacity:1;fill-rule:evenodd;stroke:#658da6;stroke-width:0.099;stroke-linecap:round;stroke-linejoin:round;stroke-opacity:1;paint-order:markers fill stroke" d="m 170.90331,171.79047 -1.27007,-0.55601 c 0,0 -1.04732,-0.44512 -1.1896,-0.89267 -0.0437,-0.13752 -0.13234,-0.41216 -0.13234,-0.41216" id="path7"/>
    <path style="display:inline;fill:#a66565;fill-opacity:1;fill-rule:evenodd;stroke:#658da6;stroke-width:0.099;stroke-linecap:round;stroke-linejoin:round;stroke-opacity:1;paint-order:markers fill stroke" d="m 237.19921,210.02344 -2.60156,3.1289" id="path8"/>
    <path style="display:inline;fill:#a66565;fill-opacity:1;fill-rule:evenodd;stroke:#658da6;stroke-width:0.0233345;stroke-linecap:round;stroke-linejoin:round;stroke-opacity:1;paint-order:markers fill stroke" d="m 254.94157,287.05394 c -0.0499,-0.17718 -0.26608,-1.11764 -0.48036,-2.08991 -0.74457,-3.37838 -2.79254,-7.25865 -9.65665,-18.29639 -7.03243,-11.30837 -14.83377,-26.26743 -18.63801,-35.73833 -0.57279,-1.42598 -1.04143,-2.67588 -1.04143,-2.77756 0,-0.10167 0.93471,0.25849 2.07713,0.80036 4.28158,2.03084 7.62597,3.14081 11.3579,3.76959 5.9937,1.00986 10.88508,1.32531 20.59448,1.32816 8.56988,0.003 11.20635,-0.13198 14.23053,-0.72589 3.58388,-0.70384 3.96763,-0.66762 5.22711,0.49332 0.97475,0.8985 1.87313,2.30445 5.08821,7.96293 7.77597,13.68558 14.34942,22.87399 21.17741,29.60192 2.77817,2.73746 3.56669,3.38067 7.66331,6.25104 1.84731,1.29436 3.38584,2.37344 3.41895,2.39797 0.0331,0.0245 -0.67187,0.92103 -1.56661,1.99221 l -1.62681,1.94762 -0.90826,-0.35764 c -2.4696,-0.97244 -5.82511,-3.55616 -6.49919,-5.00435 -0.79755,-1.71342 -3.69349,-1.73323 -13.35863,-0.0914 -6.30236,1.07061 -14.88091,2.85954 -20.8252,4.34279 -2.16874,0.54116 -15.32964,4.20351 -15.92088,4.43039 -0.12224,0.0469 -0.26309,-0.0597 -0.313,-0.23686 z" id="path10" transform="scale(0.75)"/>
    <path style="display:inline;fill:#a66565;fill-opacity:1;fill-rule:evenodd;stroke:#658da6;stroke-width:0.0233345;stroke-linecap:round;stroke-linejoin:round;stroke-opacity:1;paint-order:markers fill stroke" d="m 247.92931,286.28164 c -2.18761,-0.38076 -6.55865,-1.1564 -9.71342,-1.72365 l -5.73594,-1.03136 -1.19651,-5.73365 c -3.80219,-18.22005 -4.4313,-21.83671 -5.62599,-32.3429 -0.39222,-3.44917 -0.82918,-7.24534 -0.97103,-8.43595 -0.14185,-1.19061 -0.21066,-2.28785 -0.15293,-2.43831 0.29754,-0.77536 1.33319,1.02777 6.19751,10.79023 5.17538,10.38673 8.58187,16.57107 13.04801,23.68808 5.18167,8.25724 8.72636,14.8603 9.3712,17.4567 0.11634,0.46843 0.0959,0.48572 -0.56134,0.47462 -0.37515,-0.006 -2.47194,-0.32305 -4.65956,-0.70381 z" id="path11" transform="scale(0.75)"/>
    <path style="display:inline;fill:#a66565;fill-opacity:1;fill-rule:evenodd;stroke:#658da6;stroke-width:0.0233345;stroke-linecap:round;stroke-linejoin:round;stroke-opacity:1;paint-order:markers fill stroke" d="m 200.02283,278.37446 c 0,-6.28558 0.66781,-8.24027 4.65191,-13.6163 5.69195,-7.68055 13.90765,-22.27964 16.04529,-28.51209 0.67196,-1.95914 0.79686,-2.14278 1.0337,-1.51986 0.4237,1.11444 0.58681,4.50133 0.49397,10.25703 -0.0996,6.17668 -0.38133,9.48415 -1.02628,12.05007 -0.91022,3.6213 -3.82422,11.16102 -7.42809,19.21954 l -2.19163,4.90063 -5.78943,0.005 -5.78944,0.005 z" id="path12" transform="scale(0.75)"/>
    <path style="display:inline;fill:#a66565;fill-opacity:1;fill-rule:evenodd;stroke:#658da6;stroke-width:0.0116673;stroke-linecap:round;stroke-linejoin:round;stroke-opacity:1;paint-order:markers fill stroke" d="m 199.41884,267.89035 c -0.15449,-0.15449 -0.0346,-0.75194 0.28186,-1.40416 0.18742,-0.38633 1.18726,-1.99511 2.22185,-3.57505 2.56277,-3.91363 4.17272,-6.438 6.56721,-10.29724 3.90721,-6.29732 6.51179,-10.25267 7.872,-11.95453 0.24284,-0.30383 0.47115,-0.55242 0.50736,-0.55242 0.41529,0 -2.75359,6.45549 -5.38012,10.96015 -2.27255,3.89754 -5.32777,8.66404 -7.55666,11.78923 -2.6533,3.72028 -4.15375,5.39377 -4.5135,5.03402 z" id="path13" transform="scale(0.75)"/>
    <path style="display:inline;fill:#a66565;fill-opacity:1;fill-rule:evenodd;stroke:#658da6;stroke-width:0.099;stroke-linecap:round;stroke-linejoin:round;stroke-opacity:1;paint-order:markers fill stroke" d="m 140.60156,211.51171 -1.20117,2.10352" id="path14"/>
    <path style="display:inline;fill:#a66565;fill-opacity:1;fill-rule:evenodd;stroke:#658da6;stroke-width:0.0116673;stroke-linecap:round;stroke-linejoin:round;stroke-opacity:1;paint-order:markers fill stroke" d="m 186.36683,284.24636 c 0,-0.0301 0.26505,-0.51735 0.58899,-1.08275 0.41962,-0.73238 0.69286,-1.10519 0.95018,-1.29641 0.19865,-0.14763 0.67938,-0.6994 1.06829,-1.22616 1.48609,-2.01285 5.73689,-7.37297 7.5572,-9.5294 l 1.90035,-2.25125 0.0623,0.80398 c 0.0342,0.44218 0.074,2.6535 0.0884,4.91403 0.0235,3.6961 0.0104,4.17141 -0.13019,4.71918 -0.2824,1.1005 -0.74683,1.84013 -1.52864,2.43442 -1.50078,1.14082 -4.17888,1.87709 -8.68036,2.38641 -1.77462,0.20078 -1.87648,0.20773 -1.87648,0.12795 z" id="path15" transform="scale(0.75)"/>
    <path style="fill:#a6a565;fill-opacity:1;fill-rule:evenodd;stroke:#658da6;stroke-width:0.0961104;stroke-linecap:round;stroke-linejoin:round;stroke-opacity:1;paint-order:markers fill stroke" d="m 78.707542,107.96047 2.762657,0.98433" id="path16"/>
  </g>
  <path style="fill:#484537;fill-opacity:1;fill-rule:evenodd;stroke:#333323;stroke-width:0.046669;stroke-linecap:round;stroke-linejoin:round;stroke-opacity:1;paint-order:markers fill stroke" d="m 34.648232,284.78394 c -8.739945,-0.23189 -13.864452,-0.66181 -14.411712,-1.20907 -0.333581,-0.33358 0.692647,-2.892 11.85173,-29.54676 2.476052,-5.91434 3.549343,-7.02207 11.685993,-12.06102 6.855554,-4.24558 12.413056,-9.18344 20.84552,-18.52135 9.645049,-10.68069 11.288199,-13.35444 16.187003,-26.33973 4.356131,-11.5468 6.402965,-15.57383 10.422722,-20.50609 6.881811,-8.44402 7.406583,-9.56024 11.644372,-24.76843 1.00544,-3.60823 1.96212,-6.77732 2.12595,-7.0424 0.45415,-0.73484 3.63692,0.53278 3.39225,1.35104 -0.0961,0.32149 -0.42651,2.79484 -0.73418,5.49634 -0.75786,6.65444 -0.46572,8.69798 2.34739,16.42009 0.94468,2.59319 1.7176,4.92031 1.7176,5.17137 0,0.6324 -2.77425,1.76382 -7.55243,3.0801 l -4.04209,1.11351 -1.098194,6.92542 c -0.604011,3.80898 -1.34759,8.67551 -1.652396,10.81451 l -0.554198,3.88909 -5.896988,5.94637 c -6.726173,6.7825 -17.735203,17.18701 -22.69077,21.44478 -1.847316,1.5872 -5.148621,4.17068 -7.336233,5.74107 -5.311174,3.81266 -5.301504,4.4855 0.04482,3.11814 8.028642,-2.05338 17.440428,-9.74767 33.097745,-27.05797 2.537916,-2.80585 4.893055,-6.31546 5.812718,-8.66206 0.342936,-0.87505 1.301556,-4.29568 2.130256,-7.6014 0.8287,-3.30572 1.86629,-6.84435 2.30575,-7.86361 0.96182,-2.23076 2.98873,-4.1575 4.92103,-4.67781 4.59025,-1.23603 6.09521,-6.06885 4.35191,-13.97508 -1.0154,-4.605 -1.21005,-6.18719 -0.76121,-6.18719 0.64076,0 1.82628,0.73067 4.09234,2.52222 2.39212,1.8912 5.86564,3.84174 6.84137,3.84174 1.14272,0 1.53505,0.8764 1.0622,2.37281 -1.15904,3.66796 -9.39304,18.17022 -16.42883,28.93555 -4.67689,7.15601 -7.65626,11.098 -11.394056,15.07539 -8.996392,9.57307 -19.581494,26.44825 -16.589895,26.44825 1.205511,0 3.954201,-3.13956 11.607684,-13.25832 6.760723,-8.93843 13.993497,-16.34915 31.398607,-32.17108 11.8008,-10.7274 15.62986,-14.51114 16.59051,-16.39418 0.56452,-1.10654 0.73252,-2.10407 0.73518,-4.36521 0.005,-4.5496 0.19406,-4.88033 11.85881,-20.78534 8.7361,-11.91178 12.17726,-16.99607 13.7583,-20.3278 0.66704,-1.40564 1.94559,-5.30551 2.84123,-8.66636 2.25508,-8.46215 2.88366,-9.53154 5.92973,-10.08827 2.08023,-0.3802 3.42757,-1.5212 5.62674,-4.76504 3.67611,-5.42238 9.39665,-17.229736 10.03156,-20.705435 0.32388,-1.773013 2.62267,-6.367439 6.24138,-12.474178 3.83842,-6.477515 9.88281,-15.573658 11.07362,-16.664568 l 0.96481,-0.883883 -0.24188,2.298097 c -0.13304,1.263953 -0.82263,5.639176 -1.53243,9.722718 -1.73316,9.971025 -1.75433,13.954004 -0.1165,21.92031 1.41601,6.887418 1.99761,8.333462 3.81255,9.479179 2.08194,1.31427 5.71818,5.95237 13.35717,17.03733 8.82648,12.80814 13.66182,18.17547 26.02663,28.89019 l 6.64479,5.75804 1.4597,4.59619 c 0.80283,2.52791 3.45512,10.84218 5.89399,18.47616 3.73226,11.68254 4.3616,13.96754 3.97519,14.43314 -0.70484,0.84929 -3.01242,1.91571 -4.1453,1.91571 -1.18666,0 -0.71694,1.2301 -4.65772,-12.19759 -5.10234,-17.38558 -9.15048,-28.09434 -11.39807,-30.15197 -1.00535,-0.92038 -3.17524,-1.35601 -8.74745,-1.75616 l -3.6934,-0.26523 -7.62031,-13.46596 c -9.42098,-16.64798 -12.27478,-21.52768 -12.88737,-22.03609 -0.71106,-0.59012 -1.34326,-0.1938 -2.42936,1.52295 -1.3383,2.1154 -4.9784,9.53644 -5.75863,11.74008 l -0.63824,1.80261 1.17139,2.08648 c 1.92328,3.42573 9.44024,14.00215 14.01704,19.72206 6.96137,8.70006 11.6949,12.66674 15.76735,13.21297 2.05336,0.27541 1.75222,-0.63103 -1.2471,-3.75394 -4.34432,-4.52331 -8.90093,-9.77294 -14.00441,-16.13437 -8.49275,-10.58611 -9.28308,-11.96324 -9.28308,-16.17556 0,-2.25702 0.7837,-3.9191 1.75933,-3.73121 0.95927,0.18474 2.99185,3.15276 8.79017,12.83561 5.88641,9.82995 8.56694,13.6629 10.78173,15.41705 1.49711,1.18573 3.98801,2.08384 5.77952,2.08384 1.9511,0 4.32576,1.04056 5.60431,2.45576 1.44261,1.59679 4.37654,8.85388 7.99171,19.76746 4.89453,14.77577 5.3172,16.98275 4.17394,21.79418 -0.32344,1.36118 -0.91787,5.1717 -1.32096,8.46783 -0.8455,6.91381 -1.66805,10.89365 -2.21389,10.7117 -0.20846,-0.0695 -0.8094,-1.86772 -1.33543,-3.99608 -1.21484,-4.9154 -4.98441,-14.46181 -10.94791,-27.72549 -2.5769,-5.73139 -5.23117,-11.83423 -5.89838,-13.56187 -1.13772,-2.94593 -1.17662,-3.18147 -0.62586,-3.79005 0.32298,-0.3569 0.89513,-0.69757 1.27143,-0.75704 0.37631,-0.0595 0.71767,-0.25136 0.75858,-0.4264 0.25002,-1.06973 -17.89694,-9.05189 -18.71625,-8.23257 -0.15061,0.1506 1.71111,2.2157 4.13714,4.5891 3.71675,3.63613 4.75228,4.89953 6.57969,8.02759 3.76114,6.43813 9.39097,18.08976 17.33922,35.88567 5.07782,11.36912 6.54146,15.11448 6.03273,15.43738 -0.53481,0.33944 -1.7642,0.37935 -2.53805,0.0824 -1.10386,-0.42359 -3.20453,-3.86611 -6.82193,-11.17963 -3.9051,-7.89518 -5.34079,-10.26005 -8.07166,-13.29569 -3.36436,-3.73983 -27.43874,-23.81547 -27.94819,-23.30601 -0.43212,0.43211 4.75571,13.35997 7.50256,18.69608 2.64329,5.13491 3.64021,5.37889 4.04256,0.98934 0.12559,-1.37009 0.40356,-2.6663 0.61772,-2.88046 0.48414,-0.48414 2.17244,0.58921 5.79558,3.68453 6.67644,5.70383 9.39785,9.2705 15.99613,20.96446 3.03782,5.38386 5.65755,8.95387 6.77658,9.23473 2.75125,0.69052 17.82993,-9.28516 27.99407,-18.5202 l 2.8263,-2.56795 1.69522,2.92151 c 2.45061,4.22335 4.85675,7.78118 7.71397,11.40622 4.0805,5.17707 11.86004,13.8706 15.98642,17.86459 7.06931,6.8425 21.90279,19.75477 28.2585,24.59848 3.13858,2.39193 6.66876,4.35508 7.08425,3.93958 0.83947,-0.83947 -2.94638,-4.79746 -17.8857,-18.69899 -9.84479,-9.1609 -20.54783,-19.83534 -26.35931,-26.28889 -2.43454,-2.7035 -10.26956,-12.26332 -13.68497,-16.69754 -0.23653,-0.30709 0.56069,-1.39324 2.72477,-3.71231 3.65283,-3.91445 4.92499,-6.21487 4.59121,-8.30219 -0.34717,-2.17113 0.58832,-3.72401 4.66529,-7.74417 l 3.62628,-3.57575 -1.03356,-3.31854 c -1.69353,-5.43753 -2.23356,-8.28009 -1.80602,-9.50651 0.20412,-0.58553 1.40523,-2.61795 2.66913,-4.51648 2.99746,-4.50254 4.0372,-6.84033 4.42859,-9.95743 0.20066,-1.59804 0.55958,-2.81584 0.96046,-3.25881 0.63951,-0.70665 0.64061,-0.70662 1.24428,0.0389 1.67268,2.06568 1.69677,8.58803 0.0497,13.46737 -0.93958,2.78348 -0.94203,2.8172 -0.3429,4.71785 0.67695,2.14752 4.0101,7.85236 8.90573,15.24253 3.16244,4.77385 7.49641,10.29124 7.82543,9.96221 0.0877,-0.0877 -0.15789,-1.43447 -0.54574,-2.99285 -0.76407,-3.06992 -2.75628,-7.20584 -6.92711,-14.38099 -3.50822,-6.03526 -4.13928,-7.73803 -4.32874,-11.68025 l -0.15293,-3.18198 0.88586,1.06066 c 1.35314,1.62013 3.263,5.14601 11.01176,20.32932 10.60846,20.78672 14.11677,26.536 25.45869,41.72072 7.78363,10.42085 8.54368,11.60747 9.39026,14.66051 0.7385,2.66325 1.378,3.95723 3.32508,6.72805 2.47923,3.52809 5.83879,9.416 13.64991,23.92258 4.09601,7.60703 7.68805,14.19835 7.98227,14.6474 0.91539,1.39705 0.50163,2.05753 -1.47216,2.35 -0.97004,0.14374 -12.90067,0.36144 -26.51247,0.48378 -23.64279,0.2125 -34.91265,-0.0377 -37.77523,-0.83874 l -1.00567,-0.2814 4.45282,-4.66088 c 2.7182,-2.84522 4.45282,-4.94139 4.45282,-5.38096 0,-1.59482 -1.72297,-0.38613 -4.28295,3.00453 -0.80237,1.06274 -1.57201,1.93225 -1.71029,1.93225 -0.33601,0 -11.64722,-11.85369 -14.50353,-15.19911 -5.14439,-6.02531 -12.04076,-16.03134 -16.24598,-23.57149 -3.0674,-5.49999 -4.91487,-9.95227 -5.37373,-12.95037 -0.63597,-4.15517 -0.79713,-4.28418 -1.688,-1.35118 -0.89014,2.9306 -1.81151,4.05121 -3.79168,4.61159 -4.83559,1.36843 -20.10106,1.99201 -27.00361,1.10306 -1.84731,-0.2379 -6.58375,-1.05537 -10.52541,-1.8166 -3.94167,-0.76122 -7.74126,-1.38404 -8.44355,-1.38404 -1.5544,0 -3.59225,-1.19405 -4.03778,-2.36587 -0.18028,-0.47418 -0.32778,-1.46444 -0.32778,-2.20058 0,-1.77648 -0.62332,-3.59891 -1.49085,-4.35888 -1.1872,-1.03999 -1.41547,-0.42581 -1.15131,3.09765 0.19604,2.6147 0.12639,3.64702 -0.34096,5.05408 -1.08292,3.26037 -8.77373,15.9669 -18.32157,30.27037 -8.4158,12.60757 -14.37366,20.44486 -16.01704,21.06967 -1.00058,0.38043 -1.17816,1.85791 -0.36314,3.02152 0.4382,0.62562 0.41926,0.818 -0.1557,1.58126 -0.58607,0.77802 -1.01771,0.89777 -4.12282,1.1438 -4.65176,0.36859 -134.771473,0.59101 -147.541225,0.25221 z M 342.72867,260.19553 c 0.1161,-0.30255 -0.002,-1.05827 -0.26172,-1.67938 -1.08825,-2.59919 -6.99293,-11.96427 -16.65044,-26.40835 -11.6383,-17.4066 -15.10828,-23.03137 -16.31172,-26.441 -0.98612,-2.79392 -1.03311,-3.90492 -0.32229,-7.61962 0.29165,-1.52412 0.53027,-3.30327 0.53027,-3.95365 0,-1.50545 0.63438,-1.72561 3.59026,-1.24597 2.7661,0.44885 4.89502,0.47276 4.89502,0.055 0,-0.58079 -1.21204,-1.72876 -6.01041,-5.69271 -4.66075,-3.85026 -8.60416,-6.72082 -9.23267,-6.72082 -0.55136,0 -0.34745,1.24155 1.28912,7.84924 1.56445,6.31648 2.28094,10.53553 1.78918,10.53553 -0.64489,0 -2.50036,-1.25718 -5.70136,-3.86297 -4.90795,-3.99536 -5.75678,-3.81701 -3.24113,0.68099 3.01129,5.38422 28.92491,44.56367 36.34942,54.95761 3.92698,5.49757 7.88051,10.09621 8.67987,10.09621 0.21863,0 0.4925,-0.24754 0.6086,-0.55009 z M 123.77646,247.47042 c 1.30882,-0.67681 4.65944,-3.47471 9.47454,-7.91162 6.61762,-6.09784 11.85416,-10.65941 13.47366,-11.73693 2.443,-1.62543 2.23518,-0.61048 -1.00853,4.92553 -3.08217,5.2603 -4.27494,7.6694 -4.28701,8.65873 -0.0246,2.0182 2.98411,4.82954 5.46831,5.10954 2.43481,0.27444 4.287,-0.87255 9.51016,-5.88927 6.01658,-5.77877 10.15696,-9.3076 18.60134,-15.85389 7.4049,-5.74044 9.92762,-7.97872 20.83799,-18.48839 3.8738,-3.73153 7.86587,-7.40269 8.87127,-8.15813 2.04888,-1.5395 3.08045,-1.68873 5.85505,-0.84702 4.96281,1.50551 5.40112,-0.28833 0.9267,-3.7927 -2.67358,-2.09395 -4.00527,-2.74389 -5.62592,-2.74579 -1.22627,-0.001 -1.55915,0.23624 -3.81826,2.72607 -10.15978,11.19743 -24.85073,24.39933 -35.70889,32.0895 -5.26915,3.73182 -8.49895,6.6791 -12.04794,10.9941 -3.91027,4.75426 -6.84802,7.22491 -8.59082,7.22491 -1.5815,0 -1.31741,-0.76871 3.06727,-8.92826 1.54158,-2.86877 3.08504,-6.1303 3.42991,-7.24784 0.77765,-2.51998 1.0827,-2.91518 2.25244,-2.91811 1.28589,-0.003 2.47163,-0.87814 4.54888,-3.35643 2.23273,-2.66378 9.12963,-9.3925 16.70942,-16.30197 8.43304,-7.68726 11.68992,-11.73856 16.97123,-21.11088 3.08891,-5.48164 5.4926,-10.77711 7.43613,-16.38226 1.57952,-4.55532 7.41245,-26.77932 7.41245,-28.24208 0,-1.32013 -2.69463,-4.02101 -7.29803,-7.31497 l -3.93927,-2.81875 3.35842,-6.94755 c 6.48797,-13.42167 6.50585,-13.63871 1.73072,-20.99604 -2.70829,-4.172822 -3.7294,-6.310657 -5.0264,-10.523476 -0.6286,-2.04177 -1.22118,-3.473662 -1.31685,-3.18198 -0.0957,0.291681 -0.36016,1.803122 -0.58777,3.358757 -1.54653,10.570019 -5.66869,23.881229 -9.85381,31.819809 -0.92262,1.75009 -2.64904,4.48922 -3.83648,6.08697 -2.95904,3.98151 -7.09979,10.79905 -15.41456,25.37928 -3.88124,6.8059 -8.68585,15.1586 -10.6769,18.56155 -5.73054,9.7942 -6.91955,12.37437 -5.70245,12.37437 0.26401,0 2.21298,-1.05552 4.33103,-2.3456 8.48037,-5.1653 12.18797,-7.28972 12.38259,-7.0951 0.68743,0.68744 -24.02363,41.31018 -38.45067,63.2094 -5.91618,8.98035 -6.3756,10.12478 -3.45895,8.61652 z m -39.878361,-5.33905 c 2.013748,-1.03764 7.355102,-4.72138 13.50586,-9.3145 10.907371,-8.14516 31.274801,-22.26227 34.362101,-23.81711 l 1.83519,-0.92426 0.22957,1.53088 c 0.12627,0.84198 0.0562,3.25399 -0.15581,5.36003 -0.54539,5.41902 -0.50642,7.21764 0.16193,7.47411 0.31608,0.12129 0.75875,-0.0701 1.04774,-0.45303 1.1344,-1.50313 3.59655,-9.41555 6.17841,-19.85514 1.10552,-4.47013 1.27444,-5.73344 0.76663,-5.73344 -1.02796,0 -28.9492,19.5831 -40.00634,28.05924 -11.536829,8.84384 -20.152547,16.39574 -20.152547,17.66423 0,0.75031 0.78246,0.75346 2.227266,0.009 z" id="path17" transform="scale(0.75)"/>
  <path style="fill:#999999;fill-opacity:1;fill-rule:evenodd;stroke:#333323;stroke-width:0.0165;stroke-linecap:round;stroke-linejoin:round;stroke-opacity:1;paint-order:markers fill stroke" d="m 40.775,240.0375 c -0.580199,-0.5802 0.645497,-3.97655 3.418296,-9.47194 3.631959,-7.19816 8.145756,-14.65878 13.312218,-22.00306 4.993361,-7.09822 10.175516,-15.62422 13.358986,-21.97904 2.442902,-4.8765 5.14289,-8.94391 8.538891,-12.86346 1.717361,-1.98212 6.120243,-6.37697 8.284109,-8.26899 2.918912,-2.55223 5.424242,-4.26351 6.241795,-4.26351 0.681056,0 0.75092,0.79486 0.195369,2.22278 -0.853333,2.1933 -2.404803,4.57557 -5.348658,8.21283 -3.694465,4.56468 -4.61889,6.00028 -7.084405,11.00189 -1.785656,3.62243 -2.63938,5.60727 -4.753009,11.05039 -0.843525,2.17228 -1.91235,4.82148 -2.375166,5.88711 -3.760246,8.65789 -7.810075,14.78831 -16.125926,24.41056 -4.279658,4.95199 -6.222751,7.52352 -7.00982,9.27694 -0.478129,1.06517 -1.164607,1.9373 -2.261769,2.87345 -1.784479,1.5226 -4.611412,3.21379 -6.40423,3.83128 -0.767516,0.26435 -1.7636,0.30585 -1.986681,0.0828 z" id="path18" transform="scale(0.75)"/>
  <path style="fill:#999999;fill-opacity:1;fill-rule:evenodd;stroke:#333323;stroke-width:0.066;stroke-linecap:round;stroke-linejoin:round;stroke-opacity:1;paint-order:markers fill stroke" d="m 114.25524,192.66791 c 0.72224,-2.41099 6.00915,-11.82261 8.94176,-15.91791 5.2863,-7.38214 16.34968,-19.61999 17.07833,-18.89134 0.11545,0.11546 -0.69428,1.99449 -1.79941,4.17563 -1.17659,2.32218 -2.2365,5.31263 -2.55746,7.21571 -0.30148,1.7875 -0.88811,3.925 -1.30364,4.75 -1.34236,2.66517 -16.68546,17.68226 -19.73196,19.31269 -0.87082,0.46605 -0.93931,0.39569 -0.62762,-0.64478 z" id="path19" transform="scale(0.75)"/>
  <path style="fill:#999999;fill-opacity:1;fill-rule:evenodd;stroke:#333323;stroke-width:0.066;stroke-linecap:round;stroke-linejoin:round;stroke-opacity:1;paint-order:markers fill stroke" d="m 134,234.95724 c 0,-0.86371 2.83848,-5.0459 6.17612,-9.09985 4.9293,-5.98719 7.5631,-9.89811 16.08178,-23.87972 9.16878,-15.0486 11.24502,-19.21413 11.61595,-23.30484 0.25842,-2.84989 0.22748,-2.93832 -1.68029,-4.80169 -1.06896,-1.04409 -2.44577,-2.22972 -3.05958,-2.63474 -1.1145,-0.73539 -1.10417,-0.7577 7.51908,-16.24237 9.00986,-16.17891 10.0872,-17.93066 15.06394,-24.49389 3.98162,-5.25089 7.2862,-11.90749 9.05448,-18.23896 1.46683,-5.2521 2.33385,-6.41117 3.55082,-4.74686 1.09972,1.50395 0.81444,2.96221 -1.82898,9.34941 -1.37867,3.33124 -2.82918,7.29183 -3.22337,8.80132 -0.86996,3.33146 -0.47458,4.54082 2.78336,8.51366 3.93958,4.80405 5.44673,7.1574 5.4442,8.50088 -0.004,1.93935 -3.61844,15.39773 -5.99504,22.32041 -2.43159,7.08286 -7.03489,16.8676 -10.03256,21.32511 -3.1259,4.64819 -8.0484,10.37494 -11.66151,13.56679 -1.74152,1.53848 -6.54039,6.03222 -10.66414,9.9861 -4.12375,3.95388 -11.07445,10.07238 -15.446,13.59667 -4.37154,3.52429 -9.24201,7.66469 -10.82326,9.20091 -1.58125,1.53621 -2.875,2.56296 -2.875,2.28166 z" id="path20" transform="scale(0.75)"/>
  <path style="fill:#999999;fill-opacity:1;fill-rule:evenodd;stroke:#333323;stroke-width:0.0165;stroke-linecap:round;stroke-linejoin:round;stroke-opacity:1;paint-order:markers fill stroke" d="m 233.78161,125.38759 c -0.513,-0.46467 -1.3169,-1.74569 -1.77287,-2.82509 -2.37566,-5.62379 -11.40724,-19.29749 -16.80164,-25.4375 -1.17887,-1.341807 -1.8519,-2.307359 -2.33706,-3.352795 -1.24089,-2.673923 -1.91287,-7.683871 -1.92268,-14.334705 -0.007,-4.713368 0.27767,-7.168512 1.01084,-8.719366 0.36612,-0.77443 0.6191,-0.952229 1.04972,-0.737742 0.54578,0.271856 2.85859,5.173963 6.97914,14.792643 3.9623,9.249296 6.41529,14.618302 9.26981,20.289465 2.68462,5.3336 4.42921,8.293 5.24381,8.89527 0.89666,0.66293 1.3033,2.65433 1.2976,6.35473 -0.004,2.86373 -0.15568,3.98541 -0.67468,5.00274 -0.32508,0.63722 -0.69627,0.65723 -1.34199,0.0724 z" id="path21" transform="scale(0.75)"/>
  <path style="fill:#999999;fill-opacity:1;fill-rule:evenodd;stroke:#333323;stroke-width:0.0165;stroke-linecap:round;stroke-linejoin:round;stroke-opacity:1;paint-order:markers fill stroke" d="m 254.65044,142.97304 c -1.54353,-0.82622 -5.42457,-4.02125 -10.08794,-8.3048 -4.4957,-4.12954 -6.39802,-6.55246 -6.99812,-8.91325 -0.12985,-0.51081 -0.18938,-1.36745 -0.18938,-2.72504 v -1.98002 l 2.28125,1.72049 c 5.12407,3.8645 10.61526,10.2393 14.70363,17.06967 1.25119,2.09035 1.66404,3.3441 1.13419,3.44438 -0.10638,0.0201 -0.48602,-0.12001 -0.84363,-0.31143 z" id="path22" transform="scale(0.75)"/>
  <path style="fill:#999999;fill-opacity:1;fill-rule:evenodd;stroke:#333323;stroke-width:0.033;stroke-linecap:round;stroke-linejoin:round;stroke-opacity:1;paint-order:markers fill stroke" d="m 258.50415,214.3155 c -1.05717,-0.55533 -1.13381,-1.28649 -0.65478,-6.24645 0.86826,-8.98995 1.54983,-11.4853 3.22005,-11.78903 0.30557,-0.0556 1.2004,-0.21931 1.98852,-0.36387 2.11563,-0.38806 5.58116,-2.17339 7.10426,-3.65989 1.09941,-1.07298 1.33016,-1.46699 1.58166,-2.70067 0.6491,-3.18405 0.0124,-6.23794 -4.88938,-23.45199 -1.43246,-5.03052 -2.60056,-9.36177 -2.59577,-9.625 0.0125,-0.68565 2.30615,1.79445 5.22787,5.65278 3.01241,3.97809 5.55175,6.62228 7.13151,7.42597 2.27409,1.15692 4.85409,0.65545 7.84642,-1.52508 1.32959,-0.96888 3.60057,-2.15727 4.1225,-2.15727 0.6305,0 1.72078,5.68262 1.72675,9 0.005,2.54122 -0.3315,3.55427 -2.00767,6.05172 -1.72373,2.56832 -2.93023,4.80248 -3.68804,6.82937 -2.04791,5.47755 -7.18809,12.4541 -14.2777,19.37852 -6.10471,5.96248 -9.84076,8.2291 -11.8362,7.18089 z" id="path23" transform="scale(0.75)"/>
</svg>